<mxfile host="Electron" agent="Mozilla/5.0 (X11; Linux x86_64) AppleWebKit/537.36 (KHTML, like Gecko) draw.io/28.0.6 Chrome/138.0.7204.100 Electron/37.2.3 Safari/537.36" version="28.0.6">
  <diagram id="prtHgNgQTEPvFCAcTncT" name="Page-1">
    <mxGraphModel dx="845" dy="538" grid="1" gridSize="10" guides="1" tooltips="1" connect="1" arrows="1" fold="1" page="1" pageScale="1" pageWidth="827" pageHeight="1169" math="0" shadow="0">
      <root>
        <mxCell id="0" />
        <mxCell id="1" parent="0" />
        <mxCell id="dNxyNK7c78bLwvsdeMH5-11" value="Diagrama de casos de uso" style="swimlane;html=1;startSize=20;horizontal=1;containerType=tree;glass=0;" parent="1" vertex="1">
          <mxGeometry x="38" y="140" width="710" height="940" as="geometry" />
        </mxCell>
        <mxCell id="Vo-7TeLhGQ2IHmrXLSPQ-3" style="edgeStyle=orthogonalEdgeStyle;rounded=0;orthogonalLoop=1;jettySize=auto;html=1;" edge="1" parent="dNxyNK7c78bLwvsdeMH5-11" target="Vo-7TeLhGQ2IHmrXLSPQ-1">
          <mxGeometry relative="1" as="geometry">
            <mxPoint x="350" y="150" as="sourcePoint" />
          </mxGeometry>
        </mxCell>
        <mxCell id="Vo-7TeLhGQ2IHmrXLSPQ-6" style="edgeStyle=orthogonalEdgeStyle;rounded=0;orthogonalLoop=1;jettySize=auto;html=1;entryX=0.5;entryY=0;entryDx=0;entryDy=0;" edge="1" parent="dNxyNK7c78bLwvsdeMH5-11" source="dNxyNK7c78bLwvsdeMH5-12" target="Vo-7TeLhGQ2IHmrXLSPQ-4">
          <mxGeometry relative="1" as="geometry" />
        </mxCell>
        <mxCell id="Vo-7TeLhGQ2IHmrXLSPQ-8" style="edgeStyle=orthogonalEdgeStyle;rounded=0;orthogonalLoop=1;jettySize=auto;html=1;entryX=0.5;entryY=0;entryDx=0;entryDy=0;" edge="1" parent="dNxyNK7c78bLwvsdeMH5-11" source="dNxyNK7c78bLwvsdeMH5-12" target="Vo-7TeLhGQ2IHmrXLSPQ-5">
          <mxGeometry relative="1" as="geometry">
            <Array as="points">
              <mxPoint x="350" y="150" />
              <mxPoint x="580" y="150" />
            </Array>
          </mxGeometry>
        </mxCell>
        <UserObject label="&lt;font style=&quot;font-size: 16px;&quot;&gt;&amp;nbsp; &amp;nbsp; Jugador&lt;/font&gt;" name="Tessa Miller" position="CFO" location="Office 1" email="me@example.com" placeholders="1" link="https://www.draw.io" id="dNxyNK7c78bLwvsdeMH5-12">
          <mxCell style="label;image=https://cdn3.iconfinder.com/data/icons/user-avatars-1/512/users-3-128.png;whiteSpace=wrap;html=1;rounded=0;glass=0;treeMoving=1;treeFolding=1;" parent="dNxyNK7c78bLwvsdeMH5-11" vertex="1">
            <mxGeometry x="260" y="50" width="180" height="70" as="geometry" />
          </mxCell>
        </UserObject>
        <mxCell id="Vo-7TeLhGQ2IHmrXLSPQ-14" style="edgeStyle=orthogonalEdgeStyle;rounded=0;orthogonalLoop=1;jettySize=auto;html=1;" edge="1" parent="dNxyNK7c78bLwvsdeMH5-11" source="Vo-7TeLhGQ2IHmrXLSPQ-1" target="Vo-7TeLhGQ2IHmrXLSPQ-10">
          <mxGeometry relative="1" as="geometry" />
        </mxCell>
        <mxCell id="Vo-7TeLhGQ2IHmrXLSPQ-1" value="&lt;div style=&quot;text-align: left;&quot;&gt;&lt;span style=&quot;background-color: transparent; color: light-dark(rgb(0, 0, 0), rgb(255, 255, 255));&quot;&gt;&lt;font style=&quot;font-size: 16px;&quot;&gt;Configurar juego&lt;/font&gt;&lt;/span&gt;&lt;/div&gt;" style="rounded=0;whiteSpace=wrap;html=1;" vertex="1" parent="dNxyNK7c78bLwvsdeMH5-11">
          <mxGeometry x="30" y="180" width="180" height="80" as="geometry" />
        </mxCell>
        <mxCell id="Vo-7TeLhGQ2IHmrXLSPQ-13" style="edgeStyle=orthogonalEdgeStyle;rounded=0;orthogonalLoop=1;jettySize=auto;html=1;" edge="1" parent="dNxyNK7c78bLwvsdeMH5-11" source="Vo-7TeLhGQ2IHmrXLSPQ-4" target="Vo-7TeLhGQ2IHmrXLSPQ-11">
          <mxGeometry relative="1" as="geometry" />
        </mxCell>
        <mxCell id="Vo-7TeLhGQ2IHmrXLSPQ-4" value="&lt;div style=&quot;text-align: left;&quot;&gt;&lt;span style=&quot;font-size: 16px;&quot;&gt;Tablero de juego&lt;/span&gt;&lt;/div&gt;" style="rounded=0;whiteSpace=wrap;html=1;" vertex="1" parent="dNxyNK7c78bLwvsdeMH5-11">
          <mxGeometry x="260" y="180" width="180" height="80" as="geometry" />
        </mxCell>
        <mxCell id="Vo-7TeLhGQ2IHmrXLSPQ-15" style="edgeStyle=orthogonalEdgeStyle;rounded=0;orthogonalLoop=1;jettySize=auto;html=1;" edge="1" parent="dNxyNK7c78bLwvsdeMH5-11" source="Vo-7TeLhGQ2IHmrXLSPQ-5" target="Vo-7TeLhGQ2IHmrXLSPQ-12">
          <mxGeometry relative="1" as="geometry" />
        </mxCell>
        <mxCell id="Vo-7TeLhGQ2IHmrXLSPQ-5" value="&lt;div style=&quot;text-align: left;&quot;&gt;&lt;span style=&quot;font-size: 16px;&quot;&gt;Lanzamiento de dados&lt;/span&gt;&lt;/div&gt;" style="rounded=0;whiteSpace=wrap;html=1;" vertex="1" parent="dNxyNK7c78bLwvsdeMH5-11">
          <mxGeometry x="490" y="180" width="180" height="80" as="geometry" />
        </mxCell>
        <mxCell id="Vo-7TeLhGQ2IHmrXLSPQ-10" value="&lt;div style=&quot;&quot;&gt;&lt;span style=&quot;font-size: 16px;&quot;&gt;Ingresar datos&amp;nbsp;&lt;/span&gt;&lt;/div&gt;&lt;div style=&quot;&quot;&gt;&lt;span style=&quot;font-size: 16px; background-color: transparent; color: light-dark(rgb(0, 0, 0), rgb(255, 255, 255));&quot;&gt;nombre, pais etc&lt;/span&gt;&lt;/div&gt;" style="rounded=0;whiteSpace=wrap;html=1;align=center;" vertex="1" parent="dNxyNK7c78bLwvsdeMH5-11">
          <mxGeometry x="30" y="360" width="180" height="80" as="geometry" />
        </mxCell>
        <mxCell id="Vo-7TeLhGQ2IHmrXLSPQ-18" style="edgeStyle=orthogonalEdgeStyle;rounded=0;orthogonalLoop=1;jettySize=auto;html=1;entryX=0.5;entryY=0;entryDx=0;entryDy=0;" edge="1" parent="dNxyNK7c78bLwvsdeMH5-11" source="Vo-7TeLhGQ2IHmrXLSPQ-11" target="Vo-7TeLhGQ2IHmrXLSPQ-16">
          <mxGeometry relative="1" as="geometry" />
        </mxCell>
        <mxCell id="Vo-7TeLhGQ2IHmrXLSPQ-11" value="&lt;div style=&quot;text-align: left;&quot;&gt;&lt;span style=&quot;font-size: 16px;&quot;&gt;Ver casillas&amp;nbsp;&lt;/span&gt;&lt;/div&gt;" style="rounded=0;whiteSpace=wrap;html=1;" vertex="1" parent="dNxyNK7c78bLwvsdeMH5-11">
          <mxGeometry x="260" y="360" width="180" height="80" as="geometry" />
        </mxCell>
        <mxCell id="Vo-7TeLhGQ2IHmrXLSPQ-19" style="edgeStyle=orthogonalEdgeStyle;rounded=0;orthogonalLoop=1;jettySize=auto;html=1;entryX=0.5;entryY=0;entryDx=0;entryDy=0;" edge="1" parent="dNxyNK7c78bLwvsdeMH5-11" source="Vo-7TeLhGQ2IHmrXLSPQ-12" target="Vo-7TeLhGQ2IHmrXLSPQ-17">
          <mxGeometry relative="1" as="geometry" />
        </mxCell>
        <mxCell id="Vo-7TeLhGQ2IHmrXLSPQ-12" value="&lt;div style=&quot;&quot;&gt;&lt;span style=&quot;font-size: 16px;&quot;&gt;caso base y finalizar juego&lt;/span&gt;&lt;/div&gt;" style="rounded=0;whiteSpace=wrap;html=1;align=center;" vertex="1" parent="dNxyNK7c78bLwvsdeMH5-11">
          <mxGeometry x="490" y="360" width="180" height="80" as="geometry" />
        </mxCell>
        <mxCell id="Vo-7TeLhGQ2IHmrXLSPQ-16" value="&lt;div style=&quot;text-align: left;&quot;&gt;&lt;span style=&quot;font-size: 16px;&quot;&gt;Acciones de la casilla&lt;/span&gt;&lt;/div&gt;" style="rounded=0;whiteSpace=wrap;html=1;" vertex="1" parent="dNxyNK7c78bLwvsdeMH5-11">
          <mxGeometry x="260" y="530" width="180" height="80" as="geometry" />
        </mxCell>
        <mxCell id="Vo-7TeLhGQ2IHmrXLSPQ-21" style="edgeStyle=orthogonalEdgeStyle;rounded=0;orthogonalLoop=1;jettySize=auto;html=1;entryX=0.5;entryY=0;entryDx=0;entryDy=0;" edge="1" parent="dNxyNK7c78bLwvsdeMH5-11" source="Vo-7TeLhGQ2IHmrXLSPQ-17" target="Vo-7TeLhGQ2IHmrXLSPQ-20">
          <mxGeometry relative="1" as="geometry" />
        </mxCell>
        <mxCell id="Vo-7TeLhGQ2IHmrXLSPQ-17" value="&lt;div style=&quot;&quot;&gt;&lt;span style=&quot;font-size: 16px;&quot;&gt;Finzalizar juego&lt;/span&gt;&lt;/div&gt;" style="rounded=0;whiteSpace=wrap;html=1;align=center;" vertex="1" parent="dNxyNK7c78bLwvsdeMH5-11">
          <mxGeometry x="490" y="530" width="180" height="80" as="geometry" />
        </mxCell>
        <mxCell id="Vo-7TeLhGQ2IHmrXLSPQ-20" value="&lt;div style=&quot;&quot;&gt;&lt;span style=&quot;font-size: 16px;&quot;&gt;Ver Ranking&lt;/span&gt;&lt;/div&gt;" style="rounded=0;whiteSpace=wrap;html=1;align=center;" vertex="1" parent="dNxyNK7c78bLwvsdeMH5-11">
          <mxGeometry x="490" y="690" width="180" height="80" as="geometry" />
        </mxCell>
        <mxCell id="Vo-7TeLhGQ2IHmrXLSPQ-22" value="&lt;div style=&quot;text-align: left;&quot;&gt;&lt;font style=&quot;font-size: 17px;&quot;&gt;&lt;span style=&quot;background-color: transparent; color: light-dark(rgb(0, 0, 0), rgb(255, 255, 255));&quot;&gt;Comprar propiedad&lt;/span&gt;&lt;/font&gt;&lt;/div&gt;&lt;div style=&quot;text-align: left;&quot;&gt;&lt;font style=&quot;font-size: 17px;&quot;&gt;&lt;span style=&quot;background-color: transparent; color: light-dark(rgb(0, 0, 0), rgb(255, 255, 255));&quot;&gt;Ver ranking&lt;/span&gt;&lt;/font&gt;&lt;/div&gt;&lt;div style=&quot;text-align: left;&quot;&gt;&lt;span style=&quot;font-size: 17px; background-color: transparent; color: light-dark(rgb(0, 0, 0), rgb(255, 255, 255));&quot;&gt;Pagar renta&lt;/span&gt;&lt;/div&gt;&lt;div style=&quot;text-align: left;&quot;&gt;&lt;font style=&quot;font-size: 17px;&quot;&gt;Construir casas&lt;/font&gt;&lt;/div&gt;&lt;div style=&quot;text-align: left;&quot;&gt;&lt;span style=&quot;font-size: 17px; background-color: transparent; color: light-dark(rgb(0, 0, 0), rgb(255, 255, 255));&quot;&gt;Usar carta sorpresa/comunidad&lt;/span&gt;&lt;/div&gt;&lt;div style=&quot;text-align: left;&quot;&gt;&lt;span style=&quot;font-size: 17px; background-color: transparent; color: light-dark(rgb(0, 0, 0), rgb(255, 255, 255));&quot;&gt;Pagar impuestos&lt;/span&gt;&lt;/div&gt;&lt;div style=&quot;text-align: left;&quot;&gt;&lt;span style=&quot;font-size: 17px; background-color: transparent; color: light-dark(rgb(0, 0, 0), rgb(255, 255, 255));&quot;&gt;Ir a cÃ¡rcel/salir&lt;/span&gt;&lt;/div&gt;&lt;div style=&quot;text-align: left;&quot;&gt;&lt;span style=&quot;font-size: 17px; background-color: transparent; color: light-dark(rgb(0, 0, 0), rgb(255, 255, 255));&quot;&gt;Hipotecar/deshipotecar propiedad&lt;/span&gt;&lt;/div&gt;" style="rounded=0;whiteSpace=wrap;html=1;" vertex="1" parent="dNxyNK7c78bLwvsdeMH5-11">
          <mxGeometry x="135" y="690" width="305" height="200" as="geometry" />
        </mxCell>
        <mxCell id="Vo-7TeLhGQ2IHmrXLSPQ-24" style="edgeStyle=orthogonalEdgeStyle;rounded=0;orthogonalLoop=1;jettySize=auto;html=1;entryX=0.482;entryY=0;entryDx=0;entryDy=0;entryPerimeter=0;" edge="1" parent="dNxyNK7c78bLwvsdeMH5-11" source="Vo-7TeLhGQ2IHmrXLSPQ-16" target="Vo-7TeLhGQ2IHmrXLSPQ-22">
          <mxGeometry relative="1" as="geometry" />
        </mxCell>
      </root>
    </mxGraphModel>
  </diagram>
</mxfile>
